<?xml version="1.0" standalone="no"?>
<!DOCTYPE svg PUBLIC "-//W3C//DTD SVG 20010904//EN"
 "http://www.w3.org/TR/2001/REC-SVG-20010904/DTD/svg10.dtd">
<svg version="1.0" xmlns="http://www.w3.org/2000/svg"
 width="1448.000000pt" height="1086.000000pt" viewBox="0 0 1448.000000 1086.000000"
 preserveAspectRatio="xMidYMid meet">

<g transform="translate(0.000000,1086.000000) scale(0.100000,-0.100000)"
fill="#000000" stroke="none">
<path d="M1510 7061 c0 -15 10 -19 56 -24 72 -7 155 -48 189 -93 15 -19 38
-62 52 -96 40 -98 45 -265 40 -1285 -3 -827 -6 -925 -21 -993 -24 -101 -50
-157 -94 -203 -46 -48 -90 -71 -165 -87 -36 -7 -57 -16 -54 -23 6 -18 2476
-21 2481 -4 2 7 11 86 21 177 9 91 32 282 50 425 19 143 36 277 39 298 3 30 1
37 -13 37 -14 0 -22 -16 -35 -64 -24 -89 -115 -273 -194 -391 -115 -174 -256
-296 -417 -360 -162 -64 -442 -96 -675 -76 -263 22 -356 76 -413 243 -22 63
-22 65 -25 1102 -3 1123 -2 1138 50 1243 42 84 150 153 239 153 22 0 29 5 29
20 0 20 -7 20 -570 20 -549 0 -570 -1 -570 -19z"/>
<path d="M5475 6629 c-486 -48 -891 -337 -1054 -754 -46 -118 -70 -235 -78
-371 -10 -203 25 -369 119 -562 190 -390 615 -666 1061 -689 115 -6 117 -6
117 16 0 16 6 21 26 21 31 0 146 28 156 39 4 3 -26 2 -67 -4 -117 -16 -266 -3
-350 30 -252 100 -446 308 -563 605 -17 42 -43 129 -58 195 -25 109 -28 138
-29 310 0 146 4 210 18 275 107 506 404 809 812 828 223 10 407 -59 577 -216
110 -102 235 -290 275 -413 l18 -57 59 -6 c106 -11 145 -7 229 25 45 17 86 35
90 39 12 11 -85 160 -166 255 -284 332 -698 483 -1192 434z"/>
<path d="M8189 6631 c-234 -25 -468 -114 -639 -242 -93 -70 -211 -193 -269
-279 l-43 -65 154 -6 c84 -4 168 -11 187 -18 19 -6 36 -10 37 -8 1 1 14 27 29
57 189 376 564 569 934 480 338 -81 598 -410 665 -840 23 -151 28 -248 17
-353 -54 -503 -306 -882 -670 -1009 -111 -38 -322 -40 -413 -3 -10 4 -18 3
-18 -2 0 -14 99 -43 157 -46 48 -2 53 -4 53 -24 0 -22 4 -23 73 -23 302 0 663
151 871 365 205 212 319 450 347 730 14 134 6 246 -25 385 -100 441 -458 773
-943 876 -126 27 -371 39 -504 25z"/>
<path d="M10225 6374 c-85 -67 -234 -141 -373 -185 -57 -18 -101 -37 -99 -43
2 -6 20 -14 41 -18 62 -13 95 -39 124 -98 l27 -55 0 -725 0 -725 -23 -65 c-42
-115 -94 -163 -202 -182 -37 -6 -59 -15 -57 -22 5 -16 909 -16 914 1 3 7 -17
16 -50 23 -30 6 -76 24 -101 41 -57 36 -91 101 -106 204 -5 41 -10 339 -10
723 0 727 -6 659 73 776 113 167 227 236 392 236 161 0 262 -79 313 -245 14
-42 16 -148 19 -685 2 -390 0 -672 -7 -732 -12 -117 -40 -197 -88 -250 -39
-43 -60 -54 -137 -73 -27 -6 -49 -16 -48 -21 2 -5 186 -10 448 -12 368 -2 445
0 445 11 0 9 -21 19 -54 26 -73 16 -133 61 -158 118 -44 99 -47 160 -48 851
l0 653 26 52 c70 137 143 216 249 267 148 72 308 58 403 -33 44 -42 88 -129
101 -202 15 -80 15 -1325 0 -1431 -24 -177 -91 -255 -236 -279 -47 -7 -56 -20
-20 -29 31 -7 861 -8 881 0 26 10 9 22 -50 34 -61 13 -123 59 -151 114 -46 89
-46 92 -53 866 -4 404 -10 749 -15 765 -18 69 -84 192 -127 237 -61 62 -113
93 -204 123 -91 30 -212 33 -313 10 -184 -44 -367 -190 -462 -369 l-32 -60
-24 90 c-40 152 -112 244 -237 304 -161 76 -364 64 -550 -32 -97 -51 -213
-164 -283 -275 l-48 -78 -3 228 c-1 125 -6 227 -10 227 -4 0 -38 -25 -77 -56z"/>
<path d="M7216 5982 c-33 -6 -41 -12 -47 -36 -5 -16 -19 -41 -33 -55 -21 -22
-79 -131 -73 -137 1 -1 34 5 72 13 77 17 238 22 325 11 35 -5 48 -4 35 2 -18
8 -18 9 6 9 14 1 30 6 37 13 7 7 12 8 12 3 1 -10 50 124 50 135 0 3 -33 14
-72 24 -77 19 -247 29 -312 18z m371 -46 c3 -2 0 -13 -6 -23 -6 -10 -11 -13
-11 -7 0 6 -15 19 -32 28 l-33 17 39 -5 c21 -3 41 -7 43 -10z"/>
<path d="M7040 5666 c-74 -24 -182 -60 -239 -81 -58 -20 -130 -40 -160 -44
-31 -5 -46 -9 -33 -10 13 0 20 -5 17 -11 -3 -5 -1 -10 5 -10 7 0 63 -21 126
-46 107 -42 154 -50 154 -24 0 5 6 7 13 4 8 -3 49 6 91 20 117 39 244 57 373
55 63 -1 115 0 117 2 2 2 6 36 10 75 l7 71 -88 12 c-48 6 -110 16 -138 21 -84
15 -115 11 -255 -34z"/>
<path d="M6990 5395 c-36 -13 -108 -40 -159 -60 -112 -43 -204 -65 -282 -65
l-56 0 -16 -77 c-9 -43 -19 -88 -23 -100 -6 -20 -3 -23 23 -23 76 0 211 25
338 62 123 36 156 41 270 46 117 4 136 7 186 32 30 16 81 36 112 45 31 9 57
18 57 20 0 2 -24 8 -52 15 -69 16 -223 76 -270 106 -46 29 -48 29 -128 -1z"/>
<path d="M7498 4903 c7 -3 16 -2 19 1 4 3 -2 6 -13 5 -11 0 -14 -3 -6 -6z"/>
<path d="M6008 4293 c7 -3 16 -2 19 1 4 3 -2 6 -13 5 -11 0 -14 -3 -6 -6z"/>
<path d="M5968 4283 c7 -3 16 -2 19 1 4 3 -2 6 -13 5 -11 0 -14 -3 -6 -6z"/>
<path d="M8098 4273 c7 -3 16 -2 19 1 4 3 -2 6 -13 5 -11 0 -14 -3 -6 -6z"/>
<path d="M5710 4260 l-55 -7 63 -1 c40 -1 61 2 57 8 -3 6 -7 9 -8 8 -1 -1 -27
-4 -57 -8z"/>
</g>
</svg>
